<svg width="1920" height="700" viewBox="0 0 1920 700" fill="none" xmlns="http://www.w3.org/2000/svg">
<rect width="1920" height="700" fill="white"/>
<path d="M605.836 350.68H682.558V374.88H605.836V350.68ZM608.254 433.84H579.676V279.84H692.011V303.82H608.254V433.84Z" fill="#4C4C4C"/>
<path d="M789.868 433.84V410.08L788.329 405.02V363.44C788.329 355.373 785.911 349.14 781.075 344.74C776.238 340.193 768.911 337.92 759.091 337.92C752.496 337.92 745.975 338.947 739.526 341C733.224 343.053 727.875 345.913 723.478 349.58L712.706 329.56C719.008 324.72 726.483 321.127 735.129 318.78C743.923 316.287 753.009 315.04 762.389 315.04C779.389 315.04 792.506 319.147 801.739 327.36C811.119 335.427 815.809 347.967 815.809 364.98V433.84H789.868ZM752.936 435.38C744.143 435.38 736.448 433.913 729.853 430.98C723.258 427.9 718.129 423.72 714.465 418.44C710.948 413.013 709.189 406.927 709.189 400.18C709.189 393.58 710.728 387.64 713.805 382.36C717.03 377.08 722.232 372.9 729.414 369.82C736.595 366.74 746.121 365.2 757.992 365.2H792.066V383.46H759.971C750.591 383.46 744.289 385 741.065 388.08C737.841 391.013 736.229 394.68 736.229 399.08C736.229 404.067 738.207 408.027 742.164 410.96C746.121 413.893 751.617 415.36 758.652 415.36C765.393 415.36 771.402 413.82 776.678 410.74C782.101 407.66 785.984 403.113 788.329 397.1L792.946 413.6C790.308 420.493 785.545 425.847 778.657 429.66C771.915 433.473 763.341 435.38 752.936 435.38Z" fill="#4C4C4C"/>
<path d="M855.471 433.84V316.36H882.951V433.84H855.471ZM869.321 297C864.191 297 859.941 295.387 856.571 292.16C853.346 288.933 851.734 285.047 851.734 280.5C851.734 275.807 853.346 271.92 856.571 268.84C859.941 265.613 864.191 264 869.321 264C874.45 264 878.627 265.54 881.851 268.62C885.222 271.553 886.908 275.293 886.908 279.84C886.908 284.68 885.296 288.787 882.071 292.16C878.847 295.387 874.597 297 869.321 297Z" fill="#4C4C4C"/>
<path d="M967.601 435.38C954.704 435.38 944.738 432.08 937.703 425.48C930.668 418.733 927.151 408.833 927.151 395.78V290.4H954.63V395.12C954.63 400.693 956.023 405.02 958.807 408.1C961.738 411.18 965.769 412.72 970.898 412.72C977.053 412.72 982.183 411.107 986.286 407.88L993.981 427.46C990.756 430.1 986.799 432.08 982.11 433.4C977.42 434.72 972.583 435.38 967.601 435.38ZM907.806 339.24V317.24H986.067V339.24H907.806Z" fill="#4C4C4C"/>
<path d="M1087.59 315.04C1096.97 315.04 1105.33 316.873 1112.65 320.54C1120.13 324.207 1125.99 329.853 1130.24 337.48C1134.49 344.96 1136.62 354.64 1136.62 366.52V433.84H1109.14V370.04C1109.14 359.627 1106.64 351.853 1101.66 346.72C1096.83 341.587 1090.01 339.02 1081.22 339.02C1074.77 339.02 1069.05 340.34 1064.07 342.98C1059.09 345.62 1055.2 349.58 1052.42 354.86C1049.78 359.993 1048.46 366.52 1048.46 374.44V433.84H1020.98V270.6H1048.46V348.04L1042.53 338.36C1046.63 330.88 1052.57 325.16 1060.33 321.2C1068.25 317.093 1077.33 315.04 1087.59 315.04Z" fill="#4C4C4C"/>
<path d="M1178.51 433.84V279.84H1202.03L1298.54 398.42H1286.89V279.84H1315.25V433.84H1291.72L1195.22 315.26H1206.87V433.84H1178.51Z" fill="#4C4C4C"/>
<path d="M1411 435.38C1398.98 435.38 1388.28 432.813 1378.9 427.68C1369.52 422.4 1362.12 415.213 1356.7 406.12C1351.28 397.027 1348.57 386.687 1348.57 375.1C1348.57 363.367 1351.28 353.027 1356.7 344.08C1362.12 334.987 1369.52 327.873 1378.9 322.74C1388.28 317.607 1398.98 315.04 1411 315.04C1423.16 315.04 1433.94 317.607 1443.31 322.74C1452.84 327.873 1460.24 334.913 1465.52 343.86C1470.94 352.807 1473.65 363.22 1473.65 375.1C1473.65 386.687 1470.94 397.027 1465.52 406.12C1460.24 415.213 1452.84 422.4 1443.31 427.68C1433.94 432.813 1423.16 435.38 1411 435.38ZM1411 411.84C1417.74 411.84 1423.75 410.373 1429.03 407.44C1434.3 404.507 1438.41 400.253 1441.34 394.68C1444.41 389.107 1445.95 382.58 1445.95 375.1C1445.95 367.473 1444.41 360.947 1441.34 355.52C1438.41 349.947 1434.3 345.693 1429.03 342.76C1423.75 339.827 1417.81 338.36 1411.22 338.36C1404.48 338.36 1398.47 339.827 1393.19 342.76C1388.06 345.693 1383.96 349.947 1380.88 355.52C1377.8 360.947 1376.27 367.473 1376.27 375.1C1376.27 382.58 1377.8 389.107 1380.88 394.68C1383.96 400.253 1388.06 404.507 1393.19 407.44C1398.47 410.373 1404.4 411.84 1411 411.84Z" fill="#4C4C4C"/>
<path d="M1554.01 435.38C1542.72 435.38 1532.54 432.887 1523.45 427.9C1514.51 422.767 1507.48 415.727 1502.35 406.78C1497.22 397.833 1494.65 387.273 1494.65 375.1C1494.65 362.927 1497.22 352.367 1502.35 343.42C1507.48 334.473 1514.51 327.507 1523.45 322.52C1532.54 317.533 1542.72 315.04 1554.01 315.04C1563.83 315.04 1572.62 317.24 1580.39 321.64C1588.16 325.893 1594.31 332.42 1598.85 341.22C1603.4 350.02 1605.67 361.313 1605.67 375.1C1605.67 388.74 1603.47 400.033 1599.07 408.98C1594.68 417.78 1588.6 424.38 1580.83 428.78C1573.06 433.18 1564.12 435.38 1554.01 435.38ZM1557.31 411.84C1563.9 411.84 1569.76 410.373 1574.89 407.44C1580.17 404.507 1584.35 400.253 1587.42 394.68C1590.65 389.107 1592.26 382.58 1592.26 375.1C1592.26 367.473 1590.65 360.947 1587.42 355.52C1584.35 349.947 1580.17 345.693 1574.89 342.76C1569.76 339.827 1563.9 338.36 1557.31 338.36C1550.71 338.36 1544.77 339.827 1539.5 342.76C1534.37 345.693 1530.19 349.947 1526.97 355.52C1523.89 360.947 1522.35 367.473 1522.35 375.1C1522.35 382.58 1523.89 389.107 1526.97 394.68C1530.19 400.253 1534.37 404.507 1539.5 407.44C1544.77 410.373 1550.71 411.84 1557.31 411.84ZM1592.92 433.84V406.12L1594.02 374.88L1591.82 343.64V270.6H1619.08V433.84H1592.92Z" fill="#4C4C4C"/>
<path d="M1714.82 435.38C1701.78 435.38 1690.35 432.813 1680.53 427.68C1670.85 422.4 1663.31 415.213 1657.88 406.12C1652.61 397.027 1649.97 386.687 1649.97 375.1C1649.97 363.367 1652.54 353.027 1657.66 344.08C1662.94 334.987 1670.12 327.873 1679.21 322.74C1688.44 317.607 1698.92 315.04 1710.64 315.04C1722.08 315.04 1732.26 317.533 1741.2 322.52C1750.14 327.507 1757.18 334.547 1762.31 343.64C1767.44 352.733 1770 363.44 1770 375.76C1770 376.933 1769.93 378.253 1769.78 379.72C1769.78 381.187 1769.71 382.58 1769.56 383.9H1671.73V365.64H1755.05L1744.28 371.36C1744.43 364.613 1743.03 358.673 1740.1 353.54C1737.17 348.407 1733.14 344.373 1728.01 341.44C1723.03 338.507 1717.24 337.04 1710.64 337.04C1703.9 337.04 1697.97 338.507 1692.84 341.44C1687.86 344.373 1683.9 348.48 1680.97 353.76C1678.18 358.893 1676.79 364.98 1676.79 372.02V376.42C1676.79 383.46 1678.4 389.693 1681.63 395.12C1684.85 400.547 1689.39 404.727 1695.26 407.66C1701.12 410.593 1707.86 412.06 1715.48 412.06C1722.08 412.06 1728.01 411.033 1733.29 408.98C1738.56 406.927 1743.25 403.7 1747.36 399.3L1762.09 416.24C1756.81 422.4 1750.14 427.167 1742.08 430.54C1734.17 433.767 1725.08 435.38 1714.82 435.38Z" fill="#4C4C4C"/>
<path d="M496.149 250L495.944 250.118V449.881L496.149 450L323.074 550L322.971 549.94L322.87 550V549.881L150 450V250L323.074 150L496.149 250Z" fill="white"/>
<path d="M495.944 450L322.869 550V503V350L495.944 250V403V450Z" fill="url(#paint0_linear_127_210)"/>
<path d="M323.074 550L150 450V403V250L323.074 350V503V550Z" fill="url(#paint1_linear_127_210)"/>
<path d="M496.149 450L323.074 350V550L496.149 450Z" fill="url(#paint2_linear_127_210)"/>
<path d="M323.074 350L150 450L323.074 550V350Z" fill="url(#paint3_linear_127_210)"/>
<path d="M496.149 250L323.074 150V350L496.149 250Z" fill="url(#paint4_linear_127_210)"/>
<path d="M323.074 150L150 250L323.074 350V150Z" fill="url(#paint5_linear_127_210)"/>
<path d="M323.369 250L409.804 299.941L323.369 349.882L236.935 299.941L323.369 250Z" fill="url(#paint6_linear_127_210)"/>
<path d="M409.701 399.822L323.267 449.763V426.291V349.881L409.701 299.94V376.35V399.822Z" fill="url(#paint7_linear_127_210)"/>
<path d="M323.369 449.763L236.935 399.822V376.35V299.94L323.369 349.881V426.291V449.763Z" fill="url(#paint8_linear_127_210)"/>
<defs>
<linearGradient id="paint0_linear_127_210" x1="322.869" y1="342" x2="495.811" y2="448.883" gradientUnits="userSpaceOnUse">
<stop stop-color="#56A0F8"/>
<stop offset="1" stop-color="#7B90FD"/>
</linearGradient>
<linearGradient id="paint1_linear_127_210" x1="150" y1="250" x2="316.064" y2="541.892" gradientUnits="userSpaceOnUse">
<stop stop-color="#3DBEF5"/>
<stop offset="1" stop-color="#85AEF6"/>
</linearGradient>
<linearGradient id="paint2_linear_127_210" x1="322.869" y1="350" x2="495.804" y2="449.887" gradientUnits="userSpaceOnUse">
<stop stop-color="#6F97FF"/>
<stop offset="1" stop-color="#6B82FF"/>
</linearGradient>
<linearGradient id="paint3_linear_127_210" x1="150" y1="247.5" x2="323.066" y2="549.887" gradientUnits="userSpaceOnUse">
<stop stop-color="#60AEF6"/>
<stop offset="1" stop-color="#5BA7FF"/>
</linearGradient>
<linearGradient id="paint4_linear_127_210" x1="149.5" y1="250" x2="495.739" y2="250" gradientUnits="userSpaceOnUse">
<stop stop-color="#6BDCFF"/>
<stop offset="1" stop-color="#8DBBFF"/>
</linearGradient>
<linearGradient id="paint5_linear_127_210" x1="150" y1="250" x2="496.239" y2="250" gradientUnits="userSpaceOnUse">
<stop stop-color="#6BEDFF"/>
<stop offset="1" stop-color="#94CBFF"/>
</linearGradient>
<linearGradient id="paint6_linear_127_210" x1="236.935" y1="300" x2="409.804" y2="300" gradientUnits="userSpaceOnUse">
<stop stop-color="#6BCAFF"/>
<stop offset="1" stop-color="#83A5FF"/>
</linearGradient>
<linearGradient id="paint7_linear_127_210" x1="322.869" y1="352.5" x2="409.835" y2="401.444" gradientUnits="userSpaceOnUse">
<stop stop-color="#5683F8"/>
<stop offset="1" stop-color="#686EFF"/>
</linearGradient>
<linearGradient id="paint8_linear_127_210" x1="236.935" y1="300" x2="323.967" y2="449.943" gradientUnits="userSpaceOnUse">
<stop stop-color="#3D9DF5"/>
<stop offset="0.615" stop-color="#6093FB"/>
<stop offset="1" stop-color="#768CFF"/>
</linearGradient>
</defs>
</svg>
