<svg viewBox="0 0 101 18" xmlns="http://www.w3.org/2000/svg">
    <path d="M6.69135 9.64499H2.01759V14.566H0V2.95656H7.3743V4.58212H2.00886V8.04853H6.69135V9.64499Z" fill="#3fa9f5"/>
    <path d="M13.6663 14.566C13.5535 14.309 13.478 14.0372 13.4423 13.7587C13.1539 14.0698 12.8031 14.3167 12.4129 14.4831C12.0226 14.6495 11.6017 14.7318 11.1775 14.7246C10.4021 14.7568 9.64378 14.4911 9.05805 13.982C8.79532 13.7545 8.58555 13.4724 8.44345 13.1552C8.30134 12.8381 8.23035 12.4937 8.23545 12.1462C8.21538 11.7358 8.29877 11.3269 8.47796 10.9571C8.65715 10.5872 8.9264 10.2684 9.26097 10.0297C9.94223 9.53905 10.9188 9.29273 12.1906 9.29079H13.3827V8.72784C13.4016 8.33596 13.267 7.95213 13.0074 7.65796C12.8559 7.51484 12.676 7.4051 12.4795 7.33582C12.2829 7.26655 12.074 7.23927 11.8662 7.25575C11.4782 7.23872 11.0961 7.35556 10.784 7.58668C10.6511 7.68234 10.5432 7.80865 10.4695 7.95489C10.3958 8.10113 10.3585 8.26299 10.3607 8.42673H8.4231C8.42602 7.94335 8.5921 7.47512 8.8944 7.09792C9.22953 6.66972 9.67012 6.33589 10.173 6.12913C10.7446 5.88992 11.3594 5.77107 11.979 5.78001C12.8492 5.73416 13.7066 6.00406 14.3937 6.54006C14.6972 6.80578 14.9378 7.13571 15.0981 7.50593C15.2584 7.87615 15.3343 8.27739 15.3203 8.68057V12.5732C15.294 13.2083 15.4048 13.8416 15.6454 14.43V14.5668L13.6663 14.566ZM11.5382 13.1681C11.9155 13.1696 12.2869 13.0742 12.6168 12.891C12.9394 12.7202 13.2054 12.4595 13.3827 12.1404V10.5156H12.3339C11.7744 10.4807 11.217 10.6101 10.7302 10.888C10.5566 11.0038 10.4156 11.1621 10.3206 11.3479C10.2256 11.5336 10.1798 11.7406 10.1876 11.9491C10.1796 12.1166 10.209 12.2837 10.2735 12.4384C10.338 12.5931 10.4361 12.7316 10.5607 12.8437C10.8351 13.0693 11.1834 13.1849 11.5382 13.1681Z" fill="#3fa9f5"/>
    <path d="M17.3502 3.69915C17.3455 3.56276 17.3681 3.4268 17.4167 3.29927C17.4653 3.17174 17.5389 3.05522 17.6332 2.95656C17.7397 2.85344 17.8666 2.77372 18.0058 2.7225C18.1449 2.67127 18.2932 2.64967 18.4412 2.65908C18.59 2.64988 18.7392 2.67155 18.8792 2.72275C19.0193 2.77394 19.1473 2.85354 19.2551 2.95656C19.352 3.05408 19.4283 3.17006 19.4795 3.29761C19.5307 3.42517 19.5558 3.56172 19.5533 3.69915C19.5554 3.83426 19.5301 3.96841 19.4789 4.09344C19.4276 4.21846 19.3515 4.33177 19.2551 4.42647C19.1471 4.52945 19.0192 4.60928 18.8792 4.66106C18.7393 4.71284 18.5902 4.73548 18.4412 4.72758C18.2932 4.73614 18.1451 4.71407 18.0061 4.66276C17.867 4.61145 17.7401 4.532 17.6332 4.42938C17.5388 4.33331 17.4651 4.21899 17.4164 4.09343C17.3678 3.96788 17.3452 3.83371 17.3502 3.69915ZM19.4071 14.566H17.4695V5.93712H19.4071V14.566Z" fill="#3fa9f5"/>
    <path d="M23.9434 3.84171V5.92839H25.4664V7.36485H23.9434V12.1877C23.9215 12.4416 23.99 12.6951 24.1369 12.9034C24.2323 12.9862 24.3439 13.0484 24.4646 13.0859C24.5852 13.1235 24.7124 13.1356 24.838 13.1216C25.0656 13.1201 25.2924 13.094 25.5144 13.0438V14.534C25.0991 14.6511 24.6701 14.7123 24.2387 14.7159C22.752 14.7159 22.0077 13.8942 22.0058 12.251V7.37794H20.5875V5.93712H22.0058V3.8548L23.9434 3.84171Z" fill="#3fa9f5"/>
    <path d="M28.8557 6.879C29.1452 6.52858 29.5097 6.24779 29.9224 6.05742C30.3352 5.86705 30.7854 5.772 31.2399 5.77929C33.0824 5.77929 34.0153 6.82857 34.0386 8.92713V14.566H32.1017V8.99841C32.1017 8.40273 31.9701 7.98016 31.7141 7.73505C31.3974 7.46958 30.9903 7.33692 30.578 7.36485C30.2192 7.35214 29.8643 7.44332 29.5561 7.62744C29.2479 7.81156 28.9993 8.08077 28.8404 8.40273V14.566H26.9036V2.3187H28.8404L28.8557 6.879Z" fill="#3fa9f5"/>
    <path d="M54.1854 7.71905C54.0404 7.82756 53.9118 7.95641 53.8035 8.10162C53.4321 8.5962 53.2452 9.34219 53.2428 10.3396C53.2002 11.0762 53.3936 11.8071 53.7948 12.4263C53.9739 12.6616 54.2049 12.8523 54.4698 12.9836C54.7348 13.1149 55.0265 13.1832 55.3222 13.1832C55.6179 13.1832 55.9096 13.1149 56.1745 12.9836C56.4394 12.8523 56.6705 12.6616 56.8495 12.4263C57.2132 11.9181 57.395 11.1719 57.395 10.1876C57.4374 9.44973 57.2399 8.71797 56.8321 8.10162C56.5318 7.69993 56.0843 7.43396 55.588 7.36221C55.0916 7.29047 54.5871 7.41882 54.1854 7.71905Z" fill="#3fa9f5"/>
    <path d="M98.1882 0H38.3298C37.8475 0 37.385 0.19157 37.044 0.532568C36.703 0.873566 36.5115 1.33606 36.5115 1.8183V16.0738C36.5115 16.556 36.703 17.0185 37.044 17.3595C37.385 17.7005 37.8475 17.8921 38.3298 17.8921H98.1882C98.6705 17.8921 99.133 17.7005 99.474 17.3595C99.815 17.0185 100.007 16.556 100.007 16.0738V1.8183C100.007 1.33606 99.815 0.873566 99.474 0.532568C99.133 0.19157 98.6705 0 98.1882 0ZM49.4789 14.566H47.4606L42.2806 6.32769V14.566H40.2652V2.95656H42.2806L47.4729 11.2247V2.95656H49.4789V14.566ZM59.3326 10.3396C59.3472 11.1271 59.1799 11.9074 58.8438 12.6197C58.5387 13.264 58.0505 13.8042 57.4401 14.1726C56.8022 14.5496 56.0717 14.7408 55.3309 14.7246C54.7843 14.7476 54.2393 14.6507 53.7342 14.4406C53.2291 14.2305 52.7761 13.9124 52.4071 13.5085C51.6797 12.6978 51.3141 11.6177 51.3103 10.2683L51.3044 10.173C51.2929 9.38234 51.4652 8.59978 51.8078 7.88706C52.1161 7.24066 52.6068 6.6986 53.2195 6.32769C53.8515 5.95763 54.5732 5.7689 55.3054 5.7822C55.8305 5.76094 56.3542 5.84995 56.8428 6.0435C57.3313 6.23704 57.7739 6.53083 58.142 6.90591C58.8994 7.71513 59.3249 8.77955 59.3341 9.88792L59.3326 10.3396ZM68.1608 14.566H66.4087L66.3134 13.6736C66.0338 14.0164 65.6787 14.2898 65.2758 14.4723C64.8729 14.6549 64.4332 14.7418 63.9911 14.7261C63.5145 14.7368 63.0425 14.6315 62.6157 14.4191C62.189 14.2067 61.8203 13.8937 61.5415 13.5071C60.915 12.6939 60.602 11.5879 60.6025 10.189C60.6025 8.86046 60.9114 7.79372 61.5291 6.98882C61.8136 6.6015 62.188 6.2892 62.6201 6.07886C63.0522 5.86852 63.5289 5.76645 64.0093 5.78147C64.4263 5.76672 64.8414 5.84496 65.2245 6.01051C65.6075 6.17606 65.9489 6.42478 66.224 6.73862V2.3187H68.1608V14.566ZM77.4371 10.8647H71.8062C71.8288 11.4962 72.0824 12.0974 72.5189 12.5543C72.7248 12.7601 72.9707 12.9216 73.2414 13.0288C73.5121 13.136 73.8018 13.1866 74.0928 13.1776C74.5144 13.1861 74.9318 13.0927 75.3096 12.9053C75.6873 12.7179 76.0142 12.442 76.2624 12.1012L77.3054 13.0969C76.9594 13.6104 76.4823 14.022 75.9235 14.2889C75.3193 14.583 74.655 14.7324 73.983 14.7253C73.433 14.7467 72.8844 14.6548 72.3715 14.4552C71.8585 14.2556 71.392 13.9527 71.001 13.5653C70.2378 12.7894 69.8562 11.7593 69.8562 10.4749V10.2363C69.8392 9.43967 70.0057 8.64981 70.3428 7.92779C70.6496 7.27766 71.1355 6.7286 71.7436 6.34514C72.344 5.96723 73.0408 5.77074 73.7503 5.77929C74.9242 5.77929 75.8321 6.15386 76.4741 6.903C77.1161 7.65214 77.4361 8.71233 77.4342 10.0836L77.4371 10.8647ZM85.2463 11.6248C84.7451 11.6249 84.255 11.4764 83.8382 11.198C83.4214 10.9196 83.0965 10.5239 82.9046 10.0608C82.7127 9.59777 82.6625 9.08821 82.7602 8.5966C82.858 8.10499 83.0994 7.65341 83.4538 7.29898C83.8082 6.94455 84.2598 6.7032 84.7514 6.60545C85.243 6.5077 85.7526 6.55794 86.2156 6.74982C86.6787 6.9417 87.0744 7.2666 87.3528 7.68342C87.6312 8.10025 87.7797 8.59027 87.7796 9.0915C87.7794 9.76331 87.5124 10.4075 87.0374 10.8826C86.5623 11.3576 85.9181 11.6246 85.2463 11.6248ZM92.9959 11.6248C92.4947 11.6249 92.0046 11.4764 91.5878 11.198C91.171 10.9196 90.8461 10.5239 90.6542 10.0608C90.4623 9.59777 90.4121 9.08821 90.5098 8.5966C90.6076 8.10499 90.8489 7.65341 91.2034 7.29898C91.5578 6.94455 92.0094 6.7032 92.501 6.60545C92.9926 6.5077 93.5022 6.55794 93.9652 6.74982C94.4283 6.9417 94.824 7.2666 95.1024 7.68342C95.3808 8.10025 95.5293 8.59027 95.5292 9.0915C95.5292 9.42418 95.4636 9.75359 95.3363 10.0609C95.209 10.3683 95.0224 10.6476 94.7872 10.8828C94.552 11.118 94.2727 11.3046 93.9653 11.4319C93.658 11.5592 93.3286 11.6248 92.9959 11.6248Z" fill="#3fa9f5"/>
    <path d="M73.7503 7.33212C73.5075 7.32384 73.2659 7.36989 73.0432 7.4669C72.8205 7.56392 72.6222 7.70945 72.4629 7.89288C72.1065 8.33794 71.8888 8.87792 71.8367 9.44571H75.53V9.30025C75.5299 8.76568 75.3469 8.24725 75.0115 7.83106C74.8497 7.66176 74.6533 7.52949 74.4356 7.44336C74.2178 7.35723 73.9841 7.31928 73.7503 7.33212Z" fill="#3fa9f5"/>
    <path d="M64.5009 7.36485C64.2156 7.35297 63.932 7.41544 63.678 7.54613C63.424 7.67682 63.2084 7.87124 63.0521 8.11035C62.7127 8.60687 62.543 9.35504 62.543 10.3549C62.5033 11.0748 62.6807 11.7901 63.0521 12.4081C63.2081 12.6448 63.4227 12.8371 63.6751 12.9663C63.9274 13.0954 64.209 13.1569 64.4922 13.1449C64.8541 13.1604 65.2124 13.0681 65.5218 12.8797C65.8311 12.6913 66.0775 12.4153 66.2298 12.0866V8.40273C66.0793 8.07606 65.8338 7.80231 65.5254 7.61718C65.217 7.43204 64.86 7.34411 64.5009 7.36485Z" fill="#3fa9f5"/>
</svg>
