<svg viewBox="0 0 101 60" xmlns="http://www.w3.org/2000/svg">
    <path d="M45.1241 42.6435C44.6759 42.6238 44.2302 42.7207 43.8306 42.9249C43.4311 43.129 43.0913 43.4333 42.8446 43.8081C42.3068 44.5894 42.0379 45.7664 42.0379 47.339C41.9742 48.4716 42.2519 49.5972 42.8351 50.5703C43.0804 50.9425 43.4179 51.2449 43.8148 51.4478C44.2117 51.6508 44.6544 51.7475 45.0997 51.7285C45.6684 51.7529 46.2316 51.608 46.7179 51.3121C47.2041 51.0162 47.5916 50.5826 47.8313 50.0663V44.2708C47.5946 43.7598 47.2102 43.3316 46.7275 43.0415C46.2449 42.7514 45.6864 42.6127 45.1241 42.6435Z" fill="#3fa9f5"/>
    <path d="M59.6754 42.5863C59.2935 42.5738 58.9136 42.6465 58.5633 42.799C58.213 42.9516 57.901 43.1802 57.65 43.4682C57.0892 44.1685 56.7468 45.0183 56.6654 45.9118H62.4758V45.6863C62.4758 44.8452 62.1877 44.0296 61.6595 43.3751C61.4055 43.1079 61.0966 42.899 60.7541 42.7628C60.4115 42.6266 60.0435 42.5664 59.6754 42.5863Z" fill="#3fa9f5"/>
    <path d="M28.8936 43.1961C28.6656 43.3666 28.4631 43.5687 28.2923 43.7964C27.7078 44.5728 27.4142 45.747 27.4114 47.3189C27.3438 48.4773 27.6475 49.6271 28.2785 50.601C28.5602 50.9721 28.924 51.2731 29.3414 51.4803C29.7588 51.6875 30.2185 51.7953 30.6845 51.7953C31.1505 51.7953 31.6102 51.6875 32.0275 51.4803C32.4449 51.2731 32.8087 50.9721 33.0905 50.601C33.6622 49.8005 33.9481 48.6268 33.9481 47.0796C34.0144 45.9186 33.7035 44.7673 33.0619 43.7975C32.8277 43.4842 32.5342 43.2202 32.1979 43.0204C31.8617 42.8206 31.4894 42.6891 31.1024 42.6332C30.7153 42.5774 30.321 42.5984 29.942 42.6949C29.563 42.7915 29.2068 42.9618 28.8936 43.1961Z" fill="#3fa9f5"/>
    <path d="M98.1214 31.0503H3.94445C3.1863 31.0503 2.45921 31.3515 1.92312 31.8875C1.38703 32.4236 1.08585 33.1507 1.08585 33.9089V56.3319C1.08585 57.0901 1.38703 57.8172 1.92312 58.3532C2.45921 58.8893 3.1863 59.1905 3.94445 59.1905H98.1214C98.8795 59.1905 99.6066 58.8893 100.143 58.3532C100.679 57.8172 100.98 57.0901 100.98 56.3319V33.9068C100.979 33.149 100.678 32.4224 100.142 31.8868C99.6059 31.3512 98.8792 31.0503 98.1214 31.0503ZM21.4878 53.972H18.3115L10.1592 41.0098V53.972H6.99256V35.7024H10.1624L18.3317 48.7111V35.7024H21.4878V53.972ZM36.2233 50.9016C35.7433 51.9158 34.9746 52.7659 34.0137 53.3452C33.0109 53.937 31.863 54.2376 30.6988 54.2134C29.8385 54.25 28.9807 54.0975 28.1857 53.7668C27.3908 53.4361 26.678 52.9351 26.0975 52.2992C24.9505 51.023 24.3753 49.3238 24.3718 47.2013L24.3622 47.0521C24.3448 45.807 24.6163 44.5749 25.1552 43.4523C25.6392 42.4345 26.4101 41.5803 27.3733 40.995C28.3677 40.413 29.5033 40.1163 30.6554 40.1374C31.481 40.104 32.3044 40.2441 33.0725 40.5487C33.8407 40.8532 34.5364 41.3154 35.1148 41.9055C36.3061 43.178 36.9757 44.8517 36.9909 46.5947V47.3125C37.014 48.552 36.7514 49.7801 36.2233 50.9016ZM50.8826 53.972H48.1246L47.9753 52.5649C47.5353 53.1041 46.9765 53.5341 46.3426 53.8214C45.7088 54.1087 45.0171 54.2454 44.3216 54.2208C43.5716 54.2375 42.8289 54.0715 42.1574 53.7373C41.4858 53.4031 40.9056 52.9107 40.4667 52.3023C39.4821 51.0234 38.9898 49.2835 38.9898 47.0828C38.9898 44.9907 39.4757 43.3119 40.4476 42.0463C40.8951 41.4368 41.4843 40.9453 42.1642 40.6144C42.8441 40.2835 43.5944 40.1231 44.3502 40.147C45.0055 40.1238 45.6578 40.2465 46.2598 40.5064C46.8619 40.7662 47.3986 41.1566 47.8313 41.6493V34.7029H50.8794L50.8826 53.972ZM65.4762 48.1489H56.6188C56.6537 49.1429 57.0528 50.0895 57.74 50.8085C58.0648 51.1315 58.4522 51.3847 58.8784 51.5524C59.3047 51.7201 59.7607 51.7988 60.2185 51.7836C60.8817 51.7961 61.5382 51.6487 62.1323 51.3539C62.7265 51.059 63.2409 50.6253 63.6319 50.0896L65.274 51.6555C64.7285 52.4636 63.977 53.1112 63.0972 53.5315C62.1465 53.9929 61.1016 54.2274 60.0449 54.2165C59.1788 54.2507 58.315 54.1064 57.507 53.7925C56.6991 53.4787 55.9643 53.0021 55.3483 52.3923C54.1484 51.1741 53.5485 49.5532 53.5485 47.5295V47.1548C53.5221 45.9021 53.7836 44.66 54.3129 43.5243C54.796 42.5016 55.5606 41.6378 56.5172 41.0342C57.4632 40.439 58.561 40.1298 59.6786 40.1438C61.5264 40.1438 62.955 40.7332 63.9644 41.9119C64.9737 43.0906 65.4769 44.7585 65.4741 46.9155L65.4762 48.1489ZM77.8084 49.3569C77.0197 49.3571 76.2487 49.1234 75.5928 48.6854C74.937 48.2474 74.4258 47.6247 74.1239 46.896C73.822 46.1674 73.7429 45.3657 73.8967 44.5921C74.0505 43.8186 74.4303 43.108 74.988 42.5503C75.5457 41.9927 76.2562 41.6129 77.0298 41.4591C77.8033 41.3053 78.6051 41.3843 79.3337 41.6862C80.0623 41.9881 80.685 42.4994 81.1231 43.1552C81.5611 43.8111 81.7948 44.5821 81.7946 45.3708C81.7932 46.4271 81.3726 47.4396 80.6252 48.186C79.8778 48.9324 78.8647 49.3516 77.8084 49.3516V49.3569ZM90.0009 49.3569C89.2126 49.3561 88.4423 49.1216 87.7873 48.6832C87.1322 48.2448 86.6218 47.622 86.3206 46.8936C86.0193 46.1652 85.9407 45.3639 86.0947 44.5908C86.2487 43.8178 86.6283 43.1077 87.1857 42.5503C87.7431 41.993 88.4531 41.6133 89.2262 41.4593C89.9992 41.3054 90.8006 41.384 91.529 41.6852C92.2574 41.9865 92.8801 42.4969 93.3186 43.1519C93.757 43.807 93.9915 44.5773 93.9923 45.3655C93.9923 45.8894 93.889 46.4082 93.6884 46.8921C93.4877 47.3761 93.1936 47.8158 92.8229 48.186C92.4522 48.5562 92.0122 48.8497 91.5279 49.0497C91.0437 49.2497 90.5248 49.3523 90.0009 49.3516V49.3569Z" fill="#3fa9f5"/>
    <path d="M98.0155 2.57021C98.3525 2.57021 98.6756 2.70406 98.9139 2.94232C99.1521 3.18059 99.286 3.50374 99.286 3.84069V26.2637C99.286 26.6007 99.1521 26.9238 98.9139 27.1621C98.6756 27.4004 98.3525 27.5342 98.0155 27.5342H3.83858C3.50162 27.5342 3.17847 27.4004 2.94021 27.1621C2.70194 26.9238 2.56809 26.6007 2.56809 26.2637V3.83858C2.56809 3.50162 2.70194 3.17847 2.94021 2.94021C3.17847 2.70194 3.50162 2.56809 3.83858 2.56809H98.0155M98.0155 0.97998H3.83858C3.08043 0.97998 2.35333 1.28115 1.81724 1.81724C1.28115 2.35333 0.97998 3.08043 0.97998 3.83858V26.2637C0.97998 27.0219 1.28115 27.749 1.81724 28.2851C2.35333 28.8211 3.08043 29.1223 3.83858 29.1223H98.0155C98.7737 29.1223 99.5008 28.8211 100.037 28.2851C100.573 27.749 100.874 27.0219 100.874 26.2637V3.83858C100.874 3.08043 100.573 2.35333 100.037 1.81724C99.5008 1.28115 98.7737 0.97998 98.0155 0.97998Z" fill="#3fa9f5"/>
    <path d="M77.6845 19.3269C79.9065 19.3269 81.7078 17.5256 81.7078 15.3037C81.7078 13.0817 79.9065 11.2804 77.6845 11.2804C75.4626 11.2804 73.6613 13.0817 73.6613 15.3037C73.6613 17.5256 75.4626 19.3269 77.6845 19.3269Z" fill="#3fa9f5"/>
    <path d="M89.86 19.3269C92.082 19.3269 93.8833 17.5256 93.8833 15.3037C93.8833 13.0817 92.082 11.2804 89.86 11.2804C87.6381 11.2804 85.8368 13.0817 85.8368 15.3037C85.8368 17.5256 87.6381 19.3269 89.86 19.3269Z" fill="#3fa9f5"/>
    <path d="M17.6879 16.1581H10.3392V23.9038H7.16301V5.6342H18.7668V8.18999H10.3255V13.6446H17.6879V16.1581Z" fill="#3fa9f5"/>
    <path d="M28.6681 23.9038C28.4912 23.4991 28.3729 23.0713 28.3166 22.6333C27.8624 23.1227 27.31 23.5107 26.6955 23.7719C26.081 24.0332 25.4184 24.1618 24.7508 24.1494C23.5312 24.201 22.3381 23.7843 21.4158 22.9848C21.0021 22.6263 20.672 22.1816 20.4485 21.6819C20.225 21.1822 20.1135 20.6397 20.122 20.0923C20.0902 19.4468 20.2212 18.8036 20.5029 18.222C20.7847 17.6403 21.2082 17.1388 21.7344 16.7637C22.8066 15.9908 24.3435 15.6026 26.3452 15.599H28.2203V14.7076C28.2497 14.091 28.0378 13.4872 27.6295 13.0242C27.3907 12.7982 27.1071 12.6249 26.797 12.5155C26.487 12.406 26.1574 12.3629 25.8296 12.389C25.2193 12.3626 24.6183 12.5465 24.1272 12.9099C23.918 13.0604 23.7482 13.2593 23.6323 13.4895C23.5163 13.7197 23.4577 13.9745 23.4612 14.2322H20.4174C20.4212 13.4715 20.6825 12.7345 21.1585 12.1412C21.6855 11.4672 22.3787 10.9418 23.1701 10.6166C24.0697 10.2409 25.0369 10.0543 26.0117 10.0682C27.3806 9.9962 28.7295 10.4206 29.8105 11.2635C30.288 11.6818 30.6665 12.2009 30.9188 12.7833C31.1711 13.3658 31.2909 13.997 31.2694 14.6314V20.7551C31.2274 21.7545 31.4014 22.7512 31.7798 23.6772V23.889L28.6681 23.9038ZM25.3204 21.7037C25.913 21.705 26.4961 21.5549 27.0144 21.2675C27.5204 20.9981 27.9375 20.5876 28.215 20.086V17.527H26.5697C25.6895 17.4723 24.8125 17.6762 24.0467 18.1136C23.7734 18.2955 23.5515 18.5446 23.402 18.8369C23.2526 19.1293 23.1808 19.4551 23.1934 19.7832C23.1808 20.0465 23.2269 20.3094 23.3284 20.5527C23.4298 20.796 23.584 21.0138 23.7799 21.1902C24.2117 21.5451 24.76 21.727 25.3183 21.7006L25.3204 21.7037Z" fill="#3fa9f5"/>
    <path d="M34.4626 6.80199C34.4558 6.58799 34.4917 6.37478 34.5682 6.17482C34.6448 5.97485 34.7604 5.79215 34.9083 5.63737C35.0758 5.47505 35.2753 5.34949 35.4941 5.26873C35.7128 5.18796 35.9461 5.15377 36.1788 5.16835C36.4122 5.15402 36.6461 5.18799 36.8658 5.26815C37.0855 5.3483 37.2863 5.47291 37.4557 5.6342C37.6082 5.78673 37.7284 5.96851 37.809 6.16864C37.8896 6.36876 37.929 6.58311 37.9247 6.79881C37.9294 7.01204 37.8901 7.22397 37.8095 7.4214C37.7288 7.61884 37.6083 7.79757 37.4557 7.94648C37.2856 8.10785 37.0843 8.2327 36.8641 8.31336C36.644 8.39402 36.4097 8.42878 36.1756 8.4155C35.943 8.42891 35.7101 8.39418 35.4915 8.31348C35.2729 8.23278 35.0733 8.10784 34.9052 7.94648C34.7576 7.79573 34.6422 7.61652 34.5661 7.41976C34.4901 7.22299 34.4548 7.0128 34.4626 6.80199ZM37.6981 23.9038H34.65V10.3234H37.6981V23.9038Z" fill="#3fa9f5"/>
    <path d="M44.8361 7.0275V10.3096H47.232V12.5753H44.8361V20.1633C44.8014 20.5627 44.9094 20.9615 45.141 21.2887C45.2914 21.4181 45.467 21.5149 45.6567 21.5729C45.8465 21.6308 46.0462 21.6487 46.2432 21.6254C46.6013 21.624 46.9581 21.5832 47.3072 21.5036V23.8487C46.6523 24.0325 45.9758 24.1286 45.2956 24.1346C42.9579 24.1346 41.7873 22.8419 41.7838 20.2564V12.5838H39.5551V10.3234H41.788V7.04126L44.8361 7.0275Z" fill="#3fa9f5"/>
    <path d="M52.5649 11.8056C53.0202 11.2542 53.5939 10.8124 54.2432 10.5129C54.8926 10.2134 55.601 10.064 56.316 10.0756C59.2099 10.0756 60.678 11.7262 60.7204 15.0273V23.9038H57.6712V15.1406C57.6712 14.2026 57.4658 13.5409 57.0624 13.1512C56.5633 12.736 55.923 12.5296 55.2753 12.5753C54.7108 12.555 54.1524 12.6983 53.6674 12.9879C53.1824 13.2776 52.7915 13.7012 52.5416 14.2079V23.9038H49.4925V4.63475H52.5416L52.5649 11.8056Z" fill="#3fa9f5"/>
</svg>
