<svg viewBox="0 0 1620 400" fill="none" xmlns="http://www.w3.org/2000/svg">
<path d="M455.836 200.68H532.558V224.88H455.836V200.68ZM458.254 283.84H429.676V129.84H542.011V153.82H458.254V283.84Z" fill="#4C4C4C"/>
<path d="M639.868 283.84V260.08L638.329 255.02V213.44C638.329 205.373 635.911 199.14 631.075 194.74C626.238 190.193 618.911 187.92 609.091 187.92C602.496 187.92 595.975 188.947 589.526 191C583.224 193.053 577.875 195.913 573.478 199.58L562.706 179.56C569.008 174.72 576.483 171.127 585.129 168.78C593.923 166.287 603.009 165.04 612.389 165.04C629.389 165.04 642.506 169.147 651.739 177.36C661.119 185.427 665.809 197.967 665.809 214.98V283.84H639.868ZM602.936 285.38C594.143 285.38 586.448 283.913 579.853 280.98C573.258 277.9 568.129 273.72 564.465 268.44C560.948 263.013 559.189 256.927 559.189 250.18C559.189 243.58 560.728 237.64 563.805 232.36C567.03 227.08 572.232 222.9 579.414 219.82C586.595 216.74 596.121 215.2 607.992 215.2H642.066V233.46H609.971C600.591 233.46 594.289 235 591.065 238.08C587.841 241.013 586.229 244.68 586.229 249.08C586.229 254.067 588.207 258.027 592.164 260.96C596.121 263.893 601.617 265.36 608.652 265.36C615.393 265.36 621.402 263.82 626.678 260.74C632.101 257.66 635.984 253.113 638.329 247.1L642.946 263.6C640.308 270.493 635.545 275.847 628.657 279.66C621.915 283.473 613.341 285.38 602.936 285.38Z" fill="#4C4C4C"/>
<path d="M705.471 283.84V166.36H732.951V283.84H705.471ZM719.321 147C714.191 147 709.941 145.387 706.571 142.16C703.346 138.933 701.734 135.047 701.734 130.5C701.734 125.807 703.346 121.92 706.571 118.84C709.941 115.613 714.191 114 719.321 114C724.45 114 728.627 115.54 731.851 118.62C735.222 121.553 736.908 125.293 736.908 129.84C736.908 134.68 735.296 138.787 732.071 142.16C728.847 145.387 724.597 147 719.321 147Z" fill="#4C4C4C"/>
<path d="M817.601 285.38C804.704 285.38 794.738 282.08 787.703 275.48C780.668 268.733 777.151 258.833 777.151 245.78V140.4H804.63V245.12C804.63 250.693 806.023 255.02 808.807 258.1C811.738 261.18 815.769 262.72 820.898 262.72C827.053 262.72 832.183 261.107 836.286 257.88L843.981 277.46C840.756 280.1 836.799 282.08 832.11 283.4C827.42 284.72 822.583 285.38 817.601 285.38ZM757.806 189.24V167.24H836.067V189.24H757.806Z" fill="#4C4C4C"/>
<path d="M937.592 165.04C946.972 165.04 955.325 166.873 962.653 170.54C970.128 174.207 975.99 179.853 980.24 187.48C984.49 194.96 986.615 204.64 986.615 216.52V283.84H959.136V220.04C959.136 209.627 956.644 201.853 951.662 196.72C946.825 191.587 940.01 189.02 931.217 189.02C924.769 189.02 919.053 190.34 914.07 192.98C909.087 195.62 905.203 199.58 902.419 204.86C899.781 209.993 898.462 216.52 898.462 224.44V283.84H870.982V120.6H898.462V198.04L892.526 188.36C896.63 180.88 902.565 175.16 910.333 171.2C918.247 167.093 927.333 165.04 937.592 165.04Z" fill="#4C4C4C"/>
<path d="M1028.51 283.84V129.84H1052.03L1148.54 248.42H1136.89V129.84H1165.25V283.84H1141.72L1045.22 165.26H1056.87V283.84H1028.51Z" fill="#4C4C4C"/>
<path d="M1261 285.38C1248.98 285.38 1238.28 282.813 1228.9 277.68C1219.52 272.4 1212.12 265.213 1206.7 256.12C1201.28 247.027 1198.57 236.687 1198.57 225.1C1198.57 213.367 1201.28 203.027 1206.7 194.08C1212.12 184.987 1219.52 177.873 1228.9 172.74C1238.28 167.607 1248.98 165.04 1261 165.04C1273.16 165.04 1283.94 167.607 1293.31 172.74C1302.84 177.873 1310.24 184.913 1315.52 193.86C1320.94 202.807 1323.65 213.22 1323.65 225.1C1323.65 236.687 1320.94 247.027 1315.52 256.12C1310.24 265.213 1302.84 272.4 1293.31 277.68C1283.94 282.813 1273.16 285.38 1261 285.38ZM1261 261.84C1267.74 261.84 1273.75 260.373 1279.03 257.44C1284.3 254.507 1288.41 250.253 1291.34 244.68C1294.41 239.107 1295.95 232.58 1295.95 225.1C1295.95 217.473 1294.41 210.947 1291.34 205.52C1288.41 199.947 1284.3 195.693 1279.03 192.76C1273.75 189.827 1267.81 188.36 1261.22 188.36C1254.48 188.36 1248.47 189.827 1243.19 192.76C1238.06 195.693 1233.96 199.947 1230.88 205.52C1227.8 210.947 1226.27 217.473 1226.27 225.1C1226.27 232.58 1227.8 239.107 1230.88 244.68C1233.96 250.253 1238.06 254.507 1243.19 257.44C1248.47 260.373 1254.4 261.84 1261 261.84Z" fill="#4C4C4C"/>
<path d="M1404.01 285.38C1392.72 285.38 1382.54 282.887 1373.45 277.9C1364.51 272.767 1357.48 265.727 1352.35 256.78C1347.22 247.833 1344.65 237.273 1344.65 225.1C1344.65 212.927 1347.22 202.367 1352.35 193.42C1357.48 184.473 1364.51 177.507 1373.45 172.52C1382.54 167.533 1392.72 165.04 1404.01 165.04C1413.83 165.04 1422.62 167.24 1430.39 171.64C1438.16 175.893 1444.31 182.42 1448.85 191.22C1453.4 200.02 1455.67 211.313 1455.67 225.1C1455.67 238.74 1453.47 250.033 1449.07 258.98C1444.68 267.78 1438.6 274.38 1430.83 278.78C1423.06 283.18 1414.12 285.38 1404.01 285.38ZM1407.31 261.84C1413.9 261.84 1419.76 260.373 1424.89 257.44C1430.17 254.507 1434.35 250.253 1437.42 244.68C1440.65 239.107 1442.26 232.58 1442.26 225.1C1442.26 217.473 1440.65 210.947 1437.42 205.52C1434.35 199.947 1430.17 195.693 1424.89 192.76C1419.76 189.827 1413.9 188.36 1407.31 188.36C1400.71 188.36 1394.77 189.827 1389.5 192.76C1384.37 195.693 1380.19 199.947 1376.97 205.52C1373.89 210.947 1372.35 217.473 1372.35 225.1C1372.35 232.58 1373.89 239.107 1376.97 244.68C1380.19 250.253 1384.37 254.507 1389.5 257.44C1394.77 260.373 1400.71 261.84 1407.31 261.84ZM1442.92 283.84V256.12L1444.02 224.88L1441.82 193.64V120.6H1469.08V283.84H1442.92Z" fill="#4C4C4C"/>
<path d="M1564.82 285.38C1551.78 285.38 1540.35 282.813 1530.53 277.68C1520.85 272.4 1513.31 265.213 1507.88 256.12C1502.61 247.027 1499.97 236.687 1499.97 225.1C1499.97 213.367 1502.54 203.027 1507.66 194.08C1512.94 184.987 1520.12 177.873 1529.21 172.74C1538.44 167.607 1548.92 165.04 1560.64 165.04C1572.08 165.04 1582.26 167.533 1591.2 172.52C1600.14 177.507 1607.18 184.547 1612.31 193.64C1617.44 202.733 1620 213.44 1620 225.76C1620 226.933 1619.93 228.253 1619.78 229.72C1619.78 231.187 1619.71 232.58 1619.56 233.9H1521.73V215.64H1605.05L1594.28 221.36C1594.43 214.613 1593.03 208.673 1590.1 203.54C1587.17 198.407 1583.14 194.373 1578.01 191.44C1573.03 188.507 1567.24 187.04 1560.64 187.04C1553.9 187.04 1547.97 188.507 1542.84 191.44C1537.86 194.373 1533.9 198.48 1530.97 203.76C1528.18 208.893 1526.79 214.98 1526.79 222.02V226.42C1526.79 233.46 1528.4 239.693 1531.63 245.12C1534.85 250.547 1539.39 254.727 1545.26 257.66C1551.12 260.593 1557.86 262.06 1565.48 262.06C1572.08 262.06 1578.01 261.033 1583.29 258.98C1588.56 256.927 1593.25 253.7 1597.36 249.3L1612.09 266.24C1606.81 272.4 1600.14 277.167 1592.08 280.54C1584.17 283.767 1575.08 285.38 1564.82 285.38Z" fill="#4C4C4C"/>
<path d="M346.149 100L345.944 100.118V299.881L346.149 300L173.074 400L172.971 399.94L172.87 400V399.881L0 300V100L173.074 0L346.149 100Z" fill="white"/>
<path d="M345.944 300L172.869 400V353V200L345.944 100V253V300Z" fill="url(#paint0_linear_148_121)"/>
<path d="M173.074 400L0 300V253V100L173.074 200V353V400Z" fill="url(#paint1_linear_148_121)"/>
<path d="M346.149 300L173.074 200V400L346.149 300Z" fill="url(#paint2_linear_148_121)"/>
<path d="M173.074 200L0 300L173.074 400V200Z" fill="url(#paint3_linear_148_121)"/>
<path d="M346.149 100L173.074 0V200L346.149 100Z" fill="url(#paint4_linear_148_121)"/>
<path d="M173.074 0L0 100L173.074 200V0Z" fill="url(#paint5_linear_148_121)"/>
<path d="M173.369 100L259.804 149.941L173.369 199.882L86.9346 149.941L173.369 100Z" fill="url(#paint6_linear_148_121)"/>
<path d="M259.701 249.822L173.267 299.763V276.291V199.881L259.701 149.94V226.35V249.822Z" fill="url(#paint7_linear_148_121)"/>
<path d="M173.369 299.763L86.9346 249.822V226.35V149.94L173.369 199.881V276.291V299.763Z" fill="url(#paint8_linear_148_121)"/>
<defs>
<linearGradient id="paint0_linear_148_121" x1="172.869" y1="192" x2="345.811" y2="298.883" gradientUnits="userSpaceOnUse">
<stop stop-color="#56A0F8"/>
<stop offset="1" stop-color="#7B90FD"/>
</linearGradient>
<linearGradient id="paint1_linear_148_121" x1="0" y1="100" x2="166.064" y2="391.892" gradientUnits="userSpaceOnUse">
<stop stop-color="#3DBEF5"/>
<stop offset="1" stop-color="#85AEF6"/>
</linearGradient>
<linearGradient id="paint2_linear_148_121" x1="172.869" y1="200" x2="345.804" y2="299.887" gradientUnits="userSpaceOnUse">
<stop stop-color="#6F97FF"/>
<stop offset="1" stop-color="#6B82FF"/>
</linearGradient>
<linearGradient id="paint3_linear_148_121" x1="4.37916e-06" y1="97.5" x2="173.066" y2="399.887" gradientUnits="userSpaceOnUse">
<stop stop-color="#60AEF6"/>
<stop offset="1" stop-color="#5BA7FF"/>
</linearGradient>
<linearGradient id="paint4_linear_148_121" x1="-0.49984" y1="100" x2="345.739" y2="100" gradientUnits="userSpaceOnUse">
<stop stop-color="#6BDCFF"/>
<stop offset="1" stop-color="#8DBBFF"/>
</linearGradient>
<linearGradient id="paint5_linear_148_121" x1="1.88892e-06" y1="100" x2="346.239" y2="100" gradientUnits="userSpaceOnUse">
<stop stop-color="#6BEDFF"/>
<stop offset="1" stop-color="#94CBFF"/>
</linearGradient>
<linearGradient id="paint6_linear_148_121" x1="86.9346" y1="150" x2="259.804" y2="150" gradientUnits="userSpaceOnUse">
<stop stop-color="#6BCAFF"/>
<stop offset="1" stop-color="#83A5FF"/>
</linearGradient>
<linearGradient id="paint7_linear_148_121" x1="172.869" y1="202.5" x2="259.835" y2="251.444" gradientUnits="userSpaceOnUse">
<stop stop-color="#5683F8"/>
<stop offset="1" stop-color="#686EFF"/>
</linearGradient>
<linearGradient id="paint8_linear_148_121" x1="86.9346" y1="150" x2="173.967" y2="299.943" gradientUnits="userSpaceOnUse">
<stop stop-color="#3D9DF5"/>
<stop offset="0.615" stop-color="#6093FB"/>
<stop offset="1" stop-color="#768CFF"/>
</linearGradient>
</defs>
</svg>
